<svg id="Layer_1" data-name="Layer 1" xmlns="http://www.w3.org/2000/svg" viewBox="0 0 458.17 450.07"><defs><style>.cls-1,.cls-2{fill:none;stroke:#ff0009;}.cls-1{stroke-linecap:round;stroke-linejoin:round;stroke-width:9px;}.cls-2{stroke-miterlimit:10;stroke-width:7.38px;}.cls-3{fill:#ff0009;}</style></defs><title>Kitcheninns favicon</title><circle class="cls-1" cx="292.5" cy="105.7" r="51.89"/><path class="cls-1" d="M335.2,134.36,243.25,43.42s-11.1-9.05-20.69,0c0,0-10,10,0,20.86l20.69,22.53"/><path class="cls-1" d="M225.4,247.83s9.68,59.24,19.85,81.77"/><path class="cls-1" d="M121.61,127.69s-6.68,19.93,13.35,27.9c0,0,15.85,8,5.84,22.16,0,0,156-38.38,158.52,18.36,0,0,16.69,163.52,49.23,194.39l61.74-29.2,43.38,62.58s-16.69,26.69-53.4-12.52c0,0-59.23,46.12-85.93,21.39L264.28,378S199.2,370.48,155,445.57L86.57,403.85s18.35-37.54,58.4-4.17c0,0,34.6-81.76,93.64-86.77"/><path class="cls-1" d="M266.78,222.8,70.72,191.1s-13.36-2.89-8.25-16.68c0,0,7.66-16.86,52.09-15.33"/><path class="cls-2" d="M197,83.2c-7,21.16-20.68,40.39-39.62,52.09-22.3,13.77-50.27,16.26-76,11.16-16.87-3.34-33.31-9.9-46.76-20.62C23.63,117.09,12,101,8,83.37c15.52.25,31.18-.17,46.37-.17H197Z"/><path class="cls-2" d="M186.38,83.58c-6.89-11.33-18.39-19.33-30.79-24s-25.75-6.31-39-7.1c-16.62-1-33.44-.71-49.71,2.84-19.07,4.17-37,12.35-48.41,28.32Z"/><circle class="cls-2" cx="102.43" cy="41.21" r="7.64" transform="translate(-7.97 42.34) rotate(-22.5)"/><path class="cls-3" d="M33.62,0c2.5,2.48,2,6.85-.09,9.69s-5.3,4.56-8.32,6.37c-7.72,4.6-15,10.57-18.85,18.7A30,30,0,0,0,8.28,63.25c.78-8.47,6.52-15.73,13.17-21,9.72-7.76,21.6-12.34,33.62-15.57,4.66-1.25,9.8-2.6,12.56-6.56S69.71,11.4,69.43,7c2.12,2.46,2,7.65.89,10.68-1.44,4.06-4.91,7.13-8.74,9.1s-8,3-12.18,4.25C38.91,34.11,28.52,38.73,21,46.66S9.21,66.36,12.51,76.8A57.69,57.69,0,0,1,2.09,59.12a34,34,0,0,1-1-20.29c3.11-10.79,12.41-18.7,22.28-24,2.94-1.6,6.05-3.08,8.3-5.55S35.18,3,33.62,0Z"/></svg>
